<svg width="934" height="434" viewBox="0 0 934 434" fill="none" xmlns="http://www.w3.org/2000/svg">
<path d="M0 4.00001C0 1.79087 1.79086 0 4 0H930C932.209 0 934 1.79086 934 4V430C934 432.209 932.209 434 930 434H4C1.79086 434 0 432.209 0 430V4.00001Z" fill="white"/>
<path d="M379.413 388.139L379.328 395.97L378.492 395.97L378.555 390.152L375.951 395.97L375.313 395.97L372.812 390.196L372.761 395.97L371.925 395.97L372.01 388.139L372.758 388.139L375.654 394.892L378.665 388.139L379.413 388.139ZM386.083 390.438L386.023 395.97L385.143 395.97L385.153 394.969C384.988 395.314 384.74 395.582 384.408 395.772C384.083 395.956 383.704 396.047 383.272 396.047C382.78 396.047 382.349 395.93 381.978 395.695C381.613 395.461 381.331 395.131 381.13 394.705C380.937 394.273 380.844 393.77 380.85 393.198C380.856 392.626 380.964 392.124 381.174 391.692C381.384 391.252 381.674 390.911 382.043 390.669C382.42 390.427 382.85 390.306 383.334 390.306C383.767 390.306 384.144 390.401 384.464 390.592C384.785 390.782 385.027 391.05 385.192 391.395L385.203 390.438L386.083 390.438ZM383.456 395.31C383.998 395.31 384.418 395.127 384.716 394.76C385.013 394.386 385.166 393.858 385.173 393.176C385.18 392.495 385.039 391.97 384.75 391.604C384.461 391.237 384.045 391.054 383.502 391.054C382.959 391.054 382.532 391.244 382.22 391.626C381.915 392 381.759 392.524 381.752 393.198C381.744 393.873 381.889 394.394 382.186 394.76C382.482 395.127 382.906 395.31 383.456 395.31ZM392.667 390.438L390.017 396.476C389.739 397.107 389.393 397.569 388.979 397.862C388.565 398.155 388.057 398.357 387.454 398.467L387.275 397.774C387.797 397.657 388.191 397.499 388.457 397.301C388.73 397.111 388.957 396.814 389.137 396.41L389.363 395.915L387.079 390.438L388.014 390.438L389.835 395.002L391.776 390.438L392.667 390.438Z" fill="#999999"/>
<path d="M724.401 396.058C723.675 396.058 723.046 395.897 722.515 395.574C721.983 395.252 721.574 394.79 721.287 394.188C721.007 393.58 720.872 392.868 720.881 392.055C720.89 391.233 721.041 390.522 721.333 389.921C721.626 389.319 722.041 388.857 722.58 388.535C723.119 388.212 723.755 388.051 724.489 388.051C725.222 388.051 725.854 388.212 726.386 388.535C726.918 388.857 727.324 389.319 727.603 389.921C727.883 390.522 728.018 391.23 728.009 392.044C728 392.865 727.846 393.576 727.546 394.177C727.253 394.779 726.838 395.244 726.299 395.574C725.76 395.897 725.127 396.058 724.401 396.058ZM724.41 395.288C725.238 395.288 725.887 395.006 726.355 394.441C726.823 393.877 727.063 393.077 727.074 392.044C727.085 391.01 726.863 390.214 726.407 389.657C725.958 389.099 725.316 388.821 724.48 388.821C723.644 388.821 722.992 389.103 722.524 389.668C722.056 390.225 721.816 391.017 721.805 392.044C721.794 393.077 722.016 393.877 722.472 394.441C722.928 395.006 723.574 395.288 724.41 395.288ZM733.24 395.97L730.431 393.308L730.402 395.97L729.511 395.97L729.6 387.875L730.491 387.875L730.435 392.978L733.069 390.449L734.202 390.449L731.402 393.099L734.406 395.97L733.24 395.97ZM736.37 391.142L736.337 394.166C736.333 394.577 736.414 394.867 736.581 395.035C736.748 395.197 736.985 395.277 737.293 395.277C737.498 395.277 737.697 395.244 737.888 395.178L737.88 395.937C737.652 396.011 737.395 396.047 737.109 396.047C736.581 396.047 736.168 395.901 735.871 395.607C735.58 395.307 735.439 394.867 735.445 394.287L735.479 391.142L734.401 391.142L734.409 390.438L735.487 390.438L735.502 389.019L736.397 388.7L736.378 390.438L737.962 390.438L737.954 391.142L736.37 391.142Z" fill="#999999"/>
<path d="M304.024 393.957L299.932 393.957L299.041 395.97L298.106 395.97L301.634 388.139L302.426 388.139L305.784 395.97L304.86 395.97L304.024 393.957ZM303.713 393.209L302.03 389.184L300.259 393.209L303.713 393.209ZM309.667 390.306C310.151 390.306 310.579 390.427 310.95 390.669C311.321 390.911 311.607 391.252 311.808 391.692C312.008 392.124 312.106 392.626 312.099 393.198C312.093 393.77 311.985 394.273 311.775 394.705C311.565 395.131 311.272 395.461 310.895 395.695C310.526 395.93 310.096 396.047 309.604 396.047C309.172 396.047 308.795 395.952 308.474 395.761C308.154 395.571 307.911 395.299 307.746 394.947L307.709 398.346L306.818 398.346L306.888 391.989C306.894 391.417 306.87 390.9 306.816 390.438L307.663 390.438L307.74 391.505C307.898 391.123 308.143 390.83 308.475 390.625C308.815 390.412 309.212 390.306 309.667 390.306ZM309.447 395.31C309.99 395.31 310.41 395.127 310.707 394.76C311.012 394.394 311.168 393.873 311.175 393.198C311.183 392.524 311.038 392 310.741 391.626C310.445 391.244 310.029 391.054 309.494 391.054C308.944 391.054 308.52 391.237 308.223 391.604C307.925 391.97 307.773 392.495 307.766 393.176C307.758 393.858 307.899 394.386 308.188 394.76C308.478 395.127 308.897 395.31 309.447 395.31ZM316.076 390.306C316.259 390.306 316.427 390.328 316.581 390.372L316.55 391.186C316.382 391.127 316.188 391.098 315.968 391.098C315.433 391.098 315.031 391.266 314.763 391.604C314.503 391.934 314.37 392.337 314.365 392.813L314.331 395.97L313.44 395.97L313.483 391.989C313.489 391.417 313.466 390.9 313.412 390.438L314.259 390.438L314.336 391.461C314.479 391.087 314.706 390.801 315.016 390.603C315.326 390.405 315.68 390.306 316.076 390.306Z" fill="#999999"/>
<path d="M648.267 396.058C647.043 396.058 646.071 395.728 645.352 395.068L645.701 394.375C646.086 394.705 646.479 394.94 646.881 395.079C647.283 395.219 647.751 395.288 648.287 395.288C648.917 395.288 649.403 395.167 649.743 394.925C650.09 394.676 650.266 394.328 650.271 393.88C650.274 393.616 650.192 393.404 650.025 393.242C649.866 393.074 649.651 392.942 649.38 392.846C649.117 392.751 648.763 392.652 648.317 392.549C647.717 392.418 647.223 392.275 646.836 392.121C646.449 391.967 646.136 391.747 645.897 391.461C645.659 391.167 645.542 390.786 645.547 390.317C645.552 389.869 645.673 389.477 645.912 389.14C646.15 388.795 646.483 388.527 646.91 388.337C647.345 388.146 647.849 388.051 648.421 388.051C648.963 388.051 649.468 388.135 649.936 388.304C650.403 388.472 650.797 388.718 651.116 389.041L650.756 389.734C650.393 389.418 650.021 389.187 649.642 389.041C649.269 388.894 648.859 388.821 648.412 388.821C647.803 388.821 647.325 388.953 646.978 389.217C646.63 389.473 646.454 389.829 646.449 390.284C646.445 390.68 646.592 390.977 646.891 391.175C647.189 391.373 647.649 391.545 648.271 391.692C648.944 391.853 649.47 392.003 649.85 392.143C650.237 392.275 650.558 392.48 650.811 392.758C651.065 393.03 651.189 393.393 651.184 393.847C651.18 394.287 651.058 394.676 650.82 395.013C650.581 395.343 650.241 395.6 649.799 395.783C649.365 395.967 648.854 396.058 648.267 396.058ZM657.187 393.176L653.128 393.176C653.128 393.88 653.283 394.412 653.595 394.771C653.914 395.131 654.377 395.31 654.986 395.31C655.631 395.31 656.228 395.094 656.775 394.661L657.065 395.31C656.821 395.538 656.507 395.717 656.124 395.849C655.749 395.981 655.363 396.047 654.967 396.047C654.102 396.047 653.426 395.794 652.94 395.288C652.455 394.775 652.216 394.075 652.226 393.187C652.232 392.623 652.348 392.124 652.572 391.692C652.797 391.252 653.109 390.911 653.508 390.669C653.906 390.427 654.358 390.306 654.864 390.306C655.598 390.306 656.171 390.548 656.584 391.032C656.996 391.508 657.198 392.168 657.189 393.011L657.187 393.176ZM654.868 390.999C654.406 390.999 654.027 391.138 653.73 391.417C653.441 391.695 653.254 392.088 653.168 392.593L656.391 392.593C656.352 392.073 656.203 391.677 655.942 391.406C655.688 391.134 655.33 390.999 654.868 390.999ZM661.332 390.306C661.816 390.306 662.244 390.427 662.615 390.669C662.986 390.911 663.272 391.252 663.473 391.692C663.673 392.124 663.771 392.626 663.764 393.198C663.758 393.77 663.65 394.273 663.44 394.705C663.23 395.131 662.937 395.461 662.56 395.695C662.191 395.93 661.761 396.047 661.269 396.047C660.837 396.047 660.46 395.952 660.14 395.761C659.819 395.571 659.576 395.299 659.411 394.947L659.374 398.346L658.483 398.346L658.553 391.989C658.559 391.417 658.535 390.9 658.481 390.438L659.328 390.438L659.405 391.505C659.563 391.123 659.808 390.83 660.14 390.625C660.48 390.412 660.877 390.306 661.332 390.306ZM661.112 395.31C661.655 395.31 662.075 395.127 662.372 394.76C662.677 394.394 662.833 393.873 662.84 393.198C662.848 392.524 662.703 392 662.407 391.626C662.11 391.244 661.694 391.054 661.159 391.054C660.609 391.054 660.185 391.237 659.888 391.604C659.59 391.97 659.438 392.495 659.431 393.176C659.423 393.858 659.564 394.386 659.853 394.76C660.143 395.127 660.562 395.31 661.112 395.31Z" fill="#999999"/>
<path d="M237.137 388.139L237.052 395.97L236.216 395.97L236.279 390.152L233.675 395.97L233.037 395.97L230.537 390.196L230.485 395.97L229.649 395.97L229.734 388.139L230.482 388.139L233.379 394.892L236.389 388.139L237.137 388.139ZM243.807 390.438L243.747 395.97L242.867 395.97L242.878 394.969C242.713 395.314 242.464 395.582 242.132 395.772C241.807 395.956 241.429 396.047 240.996 396.047C240.505 396.047 240.073 395.93 239.702 395.695C239.338 395.461 239.055 395.131 238.855 394.705C238.661 394.273 238.568 393.77 238.574 393.198C238.58 392.626 238.688 392.124 238.898 391.692C239.109 391.252 239.398 390.911 239.768 390.669C240.144 390.427 240.575 390.306 241.059 390.306C241.491 390.306 241.868 390.401 242.188 390.592C242.509 390.782 242.752 391.05 242.917 391.395L242.927 390.438L243.807 390.438ZM241.18 395.31C241.723 395.31 242.143 395.127 242.44 394.76C242.737 394.386 242.89 393.858 242.897 393.176C242.905 392.495 242.764 391.97 242.474 391.604C242.185 391.237 241.769 391.054 241.226 391.054C240.684 391.054 240.256 391.244 239.944 391.626C239.639 392 239.483 392.524 239.476 393.198C239.469 393.873 239.613 394.394 239.91 394.76C240.207 395.127 240.63 395.31 241.18 395.31ZM248.105 390.306C248.289 390.306 248.457 390.328 248.611 390.372L248.58 391.186C248.412 391.127 248.218 391.098 247.998 391.098C247.462 391.098 247.061 391.266 246.793 391.604C246.533 391.934 246.4 392.337 246.395 392.813L246.361 395.97L245.47 395.97L245.513 391.989C245.519 391.417 245.495 390.9 245.442 390.438L246.289 390.438L246.366 391.461C246.509 391.087 246.736 390.801 247.046 390.603C247.356 390.405 247.709 390.306 248.105 390.306Z" fill="#999999"/>
<path d="M152.02 388.139L156.86 388.139L156.851 388.898L152.902 388.898L152.873 391.615L156.602 391.615L156.594 392.374L152.865 392.374L152.826 395.97L151.935 395.97L152.02 388.139ZM162.577 393.176L158.518 393.176C158.517 393.88 158.673 394.412 158.984 394.771C159.303 395.131 159.767 395.31 160.376 395.31C161.021 395.31 161.617 395.094 162.165 394.661L162.455 395.31C162.21 395.538 161.896 395.717 161.514 395.849C161.138 395.981 160.752 396.047 160.356 396.047C159.491 396.047 158.816 395.794 158.33 395.288C157.844 394.775 157.606 394.075 157.616 393.187C157.622 392.623 157.737 392.124 157.962 391.692C158.187 391.252 158.498 390.911 158.897 390.669C159.296 390.427 159.748 390.306 160.254 390.306C160.987 390.306 161.56 390.548 161.973 391.032C162.386 391.508 162.588 392.168 162.579 393.011L162.577 393.176ZM160.257 390.999C159.795 390.999 159.416 391.138 159.12 391.417C158.831 391.695 158.643 392.088 158.557 392.593L161.78 392.593C161.742 392.073 161.592 391.677 161.331 391.406C161.077 391.134 160.719 390.999 160.257 390.999ZM166.721 390.306C167.205 390.306 167.633 390.423 168.005 390.658C168.376 390.892 168.662 391.226 168.863 391.659C169.063 392.084 169.161 392.582 169.154 393.154C169.148 393.726 169.04 394.232 168.83 394.672C168.62 395.105 168.326 395.442 167.95 395.684C167.573 395.926 167.143 396.047 166.659 396.047C166.226 396.047 165.85 395.952 165.529 395.761C165.208 395.571 164.966 395.299 164.801 394.947L164.79 395.97L163.899 395.97L163.987 387.875L164.878 387.875L164.839 391.417C165.005 391.057 165.25 390.782 165.574 390.592C165.906 390.401 166.289 390.306 166.721 390.306ZM166.502 395.31C167.037 395.31 167.457 395.123 167.762 394.749C168.067 394.368 168.223 393.836 168.23 393.154C168.238 392.487 168.093 391.97 167.796 391.604C167.507 391.237 167.091 391.054 166.548 391.054C165.998 391.054 165.575 391.237 165.277 391.604C164.98 391.97 164.828 392.495 164.82 393.176C164.813 393.858 164.954 394.386 165.243 394.76C165.532 395.127 165.952 395.31 166.502 395.31Z" fill="#999999"/>
<path d="M448.179 397.147C448.508 397.206 448.772 397.235 448.97 397.235C449.344 397.235 449.606 397.129 449.755 396.916C449.911 396.711 449.992 396.355 449.997 395.849L450.081 388.139L450.983 388.139L450.899 395.86C450.891 396.623 450.746 397.173 450.463 397.51C450.188 397.848 449.735 398.016 449.105 398.016C448.855 398.016 448.544 397.987 448.171 397.928L448.179 397.147ZM457.416 390.438L457.356 395.97L456.487 395.97L456.497 395.013C456.318 395.351 456.069 395.607 455.752 395.783C455.435 395.959 455.078 396.047 454.682 396.047C454.03 396.047 453.537 395.864 453.203 395.497C452.87 395.131 452.707 394.588 452.715 393.869L452.752 390.438L453.643 390.438L453.606 393.847C453.601 394.346 453.699 394.713 453.902 394.947C454.105 395.182 454.415 395.299 454.833 395.299C455.325 395.299 455.722 395.142 456.026 394.826C456.331 394.504 456.486 394.082 456.491 393.561L456.525 390.438L457.416 390.438ZM461.896 390.306C463.224 390.306 463.879 391.035 463.864 392.495L463.826 395.97L462.935 395.97L462.972 392.538C462.978 392.025 462.879 391.651 462.676 391.417C462.474 391.175 462.152 391.054 461.712 391.054C461.199 391.054 460.786 391.211 460.475 391.527C460.164 391.842 460.005 392.267 459.999 392.802L459.965 395.97L459.074 395.97L459.117 391.989C459.123 391.417 459.1 390.9 459.046 390.438L459.893 390.438L459.97 391.428C460.143 391.068 460.399 390.793 460.738 390.603C461.078 390.405 461.464 390.306 461.896 390.306Z" fill="#999999"/>
<path d="M800.935 388.139L800.85 395.97L800.146 395.97L795.485 389.668L795.416 395.97L794.569 395.97L794.654 388.139L795.347 388.139L800.009 394.441L800.077 388.139L800.935 388.139ZM804.953 396.047C804.432 396.047 803.975 395.93 803.582 395.695C803.189 395.461 802.884 395.127 802.669 394.694C802.461 394.262 802.36 393.756 802.366 393.176C802.373 392.597 802.485 392.091 802.702 391.659C802.927 391.226 803.238 390.892 803.637 390.658C804.035 390.423 804.495 390.306 805.016 390.306C805.536 390.306 805.993 390.423 806.387 390.658C806.78 390.892 807.081 391.226 807.289 391.659C807.504 392.091 807.609 392.597 807.602 393.176C807.596 393.756 807.481 394.262 807.256 394.694C807.038 395.127 806.731 395.461 806.332 395.695C805.933 395.93 805.474 396.047 804.953 396.047ZM804.961 395.31C805.511 395.31 805.935 395.131 806.232 394.771C806.529 394.405 806.682 393.873 806.689 393.176C806.697 392.502 806.552 391.981 806.255 391.615C805.959 391.241 805.543 391.054 805.007 391.054C804.465 391.054 804.041 391.241 803.736 391.615C803.432 391.981 803.276 392.502 803.268 393.176C803.261 393.873 803.402 394.405 803.691 394.771C803.988 395.131 804.411 395.31 804.961 395.31ZM813.819 390.449L811.371 395.97L810.524 395.97L808.231 390.449L809.166 390.449L810.986 395.002L812.928 390.449L813.819 390.449Z" fill="#999999"/>
<path d="M522.168 397.147C522.497 397.206 522.761 397.235 522.959 397.235C523.333 397.235 523.594 397.129 523.743 396.916C523.9 396.711 523.981 396.355 523.986 395.849L524.07 388.139L524.972 388.139L524.888 395.86C524.88 396.623 524.734 397.173 524.452 397.51C524.177 397.848 523.724 398.016 523.093 398.016C522.844 398.016 522.533 397.987 522.159 397.928L522.168 397.147ZM531.405 390.438L531.345 395.97L530.476 395.97L530.486 395.013C530.307 395.351 530.058 395.607 529.741 395.783C529.424 395.959 529.067 396.047 528.671 396.047C528.018 396.047 527.525 395.864 527.192 395.497C526.859 395.131 526.696 394.588 526.704 393.869L526.741 390.438L527.632 390.438L527.595 393.847C527.589 394.346 527.688 394.713 527.891 394.947C528.094 395.182 528.404 395.299 528.822 395.299C529.313 395.299 529.711 395.142 530.015 394.826C530.319 394.504 530.474 394.082 530.48 393.561L530.514 390.438L531.405 390.438ZM533.151 387.875L534.042 387.875L533.953 395.97L533.062 395.97L533.151 387.875Z" fill="#999999"/>
<path d="M867.053 388.139L869.682 388.139C870.936 388.139 871.9 388.48 872.575 389.162C873.257 389.836 873.591 390.797 873.578 392.044C873.564 393.297 873.209 394.265 872.512 394.947C871.823 395.629 870.851 395.97 869.597 395.97L866.968 395.97L867.053 388.139ZM869.55 395.2C870.562 395.2 871.324 394.936 871.836 394.408C872.355 393.88 872.62 393.092 872.632 392.044C872.654 389.954 871.65 388.909 869.619 388.909L867.947 388.909L867.878 395.2L869.55 395.2ZM879.726 393.176L875.667 393.176C875.667 393.88 875.823 394.412 876.134 394.771C876.453 395.131 876.916 395.31 877.525 395.31C878.17 395.31 878.767 395.094 879.314 394.661L879.604 395.31C879.36 395.538 879.046 395.717 878.663 395.849C878.288 395.981 877.902 396.047 877.506 396.047C876.641 396.047 875.965 395.794 875.479 395.288C874.994 394.775 874.756 394.075 874.765 393.187C874.771 392.623 874.887 392.124 875.111 391.692C875.336 391.252 875.648 390.911 876.047 390.669C876.445 390.427 876.898 390.306 877.404 390.306C878.137 390.306 878.71 390.548 879.123 391.032C879.535 391.508 879.737 392.168 879.728 393.011L879.726 393.176ZM877.407 390.999C876.945 390.999 876.566 391.138 876.269 391.417C875.98 391.695 875.793 392.088 875.707 392.593L878.93 392.593C878.891 392.073 878.742 391.677 878.481 391.406C878.227 391.134 877.869 390.999 877.407 390.999ZM882.917 396.047C881.986 396.047 881.252 395.809 880.714 395.332L881.018 394.672C881.317 394.907 881.619 395.076 881.926 395.178C882.233 395.281 882.577 395.332 882.958 395.332C883.376 395.332 883.692 395.263 883.907 395.123C884.128 394.977 884.24 394.768 884.243 394.496C884.246 394.276 884.174 394.1 884.029 393.968C883.884 393.836 883.643 393.734 883.306 393.66L882.374 393.44C881.913 393.338 881.556 393.154 881.302 392.89C881.055 392.626 880.934 392.311 880.938 391.945C880.943 391.461 881.142 391.068 881.534 390.768C881.926 390.46 882.441 390.306 883.079 390.306C883.468 390.306 883.834 390.368 884.177 390.493C884.52 390.617 884.808 390.797 885.04 391.032L884.736 391.681C884.22 391.248 883.665 391.032 883.071 391.032C882.675 391.032 882.366 391.109 882.145 391.263C881.93 391.409 881.822 391.618 881.819 391.89C881.816 392.117 881.88 392.297 882.011 392.429C882.149 392.56 882.368 392.663 882.667 392.736L883.6 392.967C884.112 393.085 884.491 393.268 884.738 393.517C884.985 393.759 885.106 394.078 885.102 394.474C885.096 394.951 884.898 395.332 884.506 395.618C884.114 395.904 883.585 396.047 882.917 396.047Z" fill="#999999"/>
<path d="M587.114 394.986L583.022 394.986L582.131 396.999L581.196 396.999L584.724 389.168L585.516 389.168L588.874 396.999L587.95 396.999L587.114 394.986ZM586.803 394.239L585.12 390.213L583.349 394.239L586.803 394.239ZM594.922 391.467L594.863 396.955C594.854 397.777 594.634 398.396 594.204 398.814C593.782 399.24 593.16 399.452 592.338 399.452C591.495 399.452 590.771 399.262 590.167 398.88L590.328 398.154C590.678 398.352 591.007 398.495 591.314 398.583C591.628 398.671 591.972 398.715 592.346 398.715C592.882 398.715 593.287 398.572 593.561 398.286C593.835 398.008 593.976 397.59 593.982 397.032L593.996 395.723C593.823 396.075 593.571 396.35 593.239 396.548C592.914 396.739 592.528 396.834 592.081 396.834C591.597 396.834 591.165 396.721 590.787 396.493C590.415 396.266 590.129 395.943 589.928 395.525C589.727 395.107 589.63 394.627 589.636 394.085C589.642 393.542 589.75 393.062 589.959 392.644C590.169 392.226 590.462 391.903 590.839 391.676C591.223 391.448 591.657 391.335 592.141 391.335C592.581 391.335 592.961 391.43 593.282 391.621C593.609 391.811 593.856 392.079 594.021 392.424L594.031 391.467L594.922 391.467ZM592.265 396.086C592.8 396.086 593.22 395.91 593.525 395.558C593.837 395.199 593.996 394.708 594.003 394.085C594.01 393.461 593.861 392.974 593.557 392.622C593.26 392.262 592.844 392.083 592.309 392.083C591.766 392.083 591.335 392.262 591.016 392.622C590.704 392.974 590.545 393.461 590.538 394.085C590.531 394.708 590.68 395.199 590.984 395.558C591.295 395.91 591.722 396.086 592.265 396.086ZM601.264 391.467L601.204 396.999L600.335 396.999L600.345 396.042C600.165 396.38 599.917 396.636 599.6 396.812C599.282 396.988 598.926 397.076 598.53 397.076C597.877 397.076 597.384 396.893 597.051 396.526C596.718 396.16 596.555 395.617 596.563 394.898L596.6 391.467L597.491 391.467L597.454 394.876C597.448 395.375 597.547 395.742 597.75 395.976C597.953 396.211 598.263 396.328 598.681 396.328C599.172 396.328 599.57 396.171 599.874 395.855C600.178 395.533 600.333 395.111 600.339 394.59L600.373 391.467L601.264 391.467Z" fill="#999999"/>
<path d="M78.8251 397.147C79.1545 397.206 79.4182 397.235 79.6162 397.235C79.9902 397.235 80.2517 397.129 80.4006 396.916C80.5569 396.711 80.6377 396.355 80.6433 395.849L80.7272 388.139L81.6292 388.139L81.5451 395.86C81.5368 396.623 81.3915 397.173 81.1092 397.51C80.8342 397.848 80.3813 398.016 79.7507 398.016C79.5013 398.016 79.19 397.987 78.8166 397.928L78.8251 397.147ZM88.3043 390.438L88.2441 395.97L87.3641 395.97L87.3749 394.969C87.2099 395.314 86.9613 395.582 86.6292 395.772C86.3045 395.956 85.9259 396.047 85.4932 396.047C85.0019 396.047 84.5705 395.93 84.199 395.695C83.8349 395.461 83.5525 395.131 83.3518 394.705C83.1585 394.273 83.065 393.77 83.0712 393.198C83.0774 392.626 83.1856 392.124 83.3956 391.692C83.6057 391.252 83.8955 390.911 84.2648 390.669C84.6414 390.427 85.0717 390.306 85.5557 390.306C85.9884 390.306 86.365 390.401 86.6856 390.592C87.0062 390.782 87.2489 391.05 87.4139 391.395L87.4243 390.438L88.3043 390.438ZM85.6772 395.31C86.2199 395.31 86.6399 395.127 86.9372 394.76C87.2346 394.386 87.387 393.858 87.3945 393.176C87.4019 392.495 87.2609 391.97 86.9716 391.604C86.6822 391.237 86.2662 391.054 85.7236 391.054C85.1809 391.054 84.7535 391.244 84.4413 391.626C84.1366 392 83.9806 392.524 83.9732 393.198C83.9659 393.873 84.1105 394.394 84.4072 394.76C84.7039 395.127 85.1272 395.31 85.6772 395.31ZM92.7894 390.306C94.1167 390.306 94.7725 391.035 94.7566 392.495L94.7188 395.97L93.8278 395.97L93.8651 392.538C93.8707 392.025 93.7721 391.651 93.5693 391.417C93.3666 391.175 93.0453 391.054 92.6053 391.054C92.0919 391.054 91.6796 391.211 91.3681 391.527C91.0567 391.842 90.8981 392.267 90.8922 392.802L90.8578 395.97L89.9668 395.97L90.0101 391.989C90.0163 391.417 89.9926 390.9 89.939 390.438L90.786 390.438L90.8632 391.428C91.0358 391.068 91.2918 390.793 91.6312 390.603C91.9707 390.405 92.3567 390.306 92.7894 390.306Z" fill="#999999"/>
<path d="M70.4365 351.077L902.404 351.077" stroke="#E4E4E4" stroke-opacity="0.2" stroke-linecap="square"/>
<path d="M71.0501 294.727L903.018 294.727" stroke="#E4E4E4" stroke-opacity="0.2" stroke-linecap="square"/>
<path d="M71.6638 238.376L903.632 238.376" stroke="#E4E4E4" stroke-opacity="0.2" stroke-linecap="square"/>
<path d="M72.2764 182.025L904.244 182.025" stroke="#E4E4E4" stroke-opacity="0.2" stroke-linecap="square"/>
<path d="M72.8897 125.675L904.857 125.675" stroke="#E4E4E4" stroke-opacity="0.2" stroke-linecap="square"/>
<path d="M72.8897 82.523L904.857 82.523" stroke="#E4E4E4" stroke-opacity="0.2" stroke-linecap="square"/>
<path d="M72.8897 39.523L904.857 39.523" stroke="#E4E4E4" stroke-opacity="0.2" stroke-linecap="square"/>
<path d="M77.3035 261.022C79.1099 258.709 86.6135 263.879 95.8941 260.946C103.202 258.637 109.617 251.22 118.965 248.979C136.707 244.726 151.197 240.354 159.513 230.195C167.83 220.035 180.522 185.588 195.201 185.588C209.879 185.588 217.155 203.506 222.564 215.308C227.745 226.613 237.665 253.766 254.151 256.76C272.347 260.065 287.12 280.215 308.837 283.602C320.412 285.407 329.739 281.893 340.162 276.434C350.585 270.975 348.582 268.618 371.935 264.409C391.207 260.936 396.368 248.979 415.231 247.54C434.094 246.102 444.058 292.258 463.998 288.5C559.831 304.892 775.598 307.258 871.998 185.588" stroke="#5F2EEA" stroke-width="2" stroke-linecap="round" stroke-linejoin="round"/>
<g filter="url(#filter0_dd_15392_7367)">
<rect width="20.925" height="21.3232" rx="7" transform="matrix(1 1.30383e-08 -0.0108829 0.999941 187.917 172.622)" fill="#5F2EEA"/>
<rect x="0.989117" y="0.999941" width="18.925" height="19.3232" rx="6" transform="matrix(1 1.30383e-08 -0.0108829 0.999941 187.928 172.622)" stroke="white" stroke-width="2"/>
</g>
<path d="M52.1934 349.615C52.187 350.202 51.9727 350.693 51.5504 351.089C51.1281 351.485 50.5718 351.723 49.8816 351.804L49.8684 353.014L49.0984 353.014L49.1115 351.815C48.6058 351.786 48.1375 351.687 47.7067 351.518C47.2832 351.349 46.9118 351.115 46.5924 350.814L46.9409 350.121C47.2896 350.422 47.6392 350.645 47.9896 350.792C48.3473 350.939 48.7351 351.023 49.1529 351.045L49.1833 348.251C48.6787 348.119 48.2622 347.98 47.9338 347.833C47.6054 347.686 47.3291 347.474 47.1048 347.195C46.8879 346.909 46.7819 346.535 46.787 346.073C46.7914 345.67 46.8943 345.307 47.0958 344.984C47.3047 344.662 47.5898 344.401 47.9513 344.203C48.3129 343.998 48.7286 343.873 49.1984 343.829L49.2114 342.63L49.9814 342.63L49.9683 343.84C50.3932 343.877 50.7954 343.98 51.1749 344.148C51.5617 344.317 51.8894 344.537 52.1577 344.808L51.8092 345.501C51.2794 344.988 50.652 344.691 49.9269 344.61L49.8947 347.569C50.3774 347.686 50.7757 347.815 51.0895 347.954C51.4106 348.093 51.6761 348.299 51.8858 348.57C52.0956 348.834 52.1981 349.182 52.1934 349.615ZM47.7113 346.04C47.7073 346.414 47.8325 346.7 48.087 346.898C48.3415 347.096 48.71 347.261 49.1926 347.393L49.2229 344.61C48.7531 344.654 48.3848 344.805 48.118 345.061C47.8513 345.311 47.7157 345.637 47.7113 346.04ZM49.8571 351.023C50.3051 350.964 50.6513 350.818 50.8959 350.583C51.1478 350.341 51.2759 350.026 51.2802 349.637C51.2837 349.314 51.1654 349.065 50.9253 348.889C50.6853 348.706 50.3387 348.552 49.8853 348.427L49.8571 351.023ZM55.9821 351.826C55.0874 351.826 54.4091 351.489 53.9471 350.814C53.4925 350.132 53.2723 349.135 53.2866 347.822C53.3009 346.51 53.5427 345.516 54.0121 344.841C54.4888 344.159 55.1745 343.818 56.0692 343.818C56.9639 343.818 57.6385 344.159 58.0931 344.841C58.5551 345.516 58.779 346.506 58.7648 347.811C58.7505 349.124 58.5049 350.121 58.0282 350.803C57.5588 351.485 56.8767 351.826 55.9821 351.826ZM55.9903 351.067C56.6137 351.067 57.0749 350.803 57.3739 350.275C57.6804 349.747 57.8396 348.926 57.8518 347.811C57.8638 346.704 57.726 345.89 57.4383 345.369C57.1507 344.849 56.6915 344.588 56.0608 344.588C55.4375 344.588 54.9727 344.849 54.6663 345.369C54.3673 345.89 54.2118 346.704 54.1998 347.811C54.1877 348.918 54.3254 349.74 54.6129 350.275C54.9079 350.803 55.367 351.067 55.9903 351.067Z" fill="#999999"/>
<path d="M40.5257 293.18C40.5193 293.767 40.305 294.258 39.8827 294.654C39.4604 295.05 38.9041 295.288 38.2139 295.369L38.2007 296.579L37.4307 296.579L37.4438 295.38C36.9381 295.351 36.4698 295.252 36.039 295.083C35.6155 294.914 35.244 294.68 34.9247 294.379L35.2732 293.686C35.6219 293.987 35.9715 294.21 36.3219 294.357C36.6796 294.504 37.0674 294.588 37.4851 294.61L37.5155 291.816C37.011 291.684 36.5945 291.545 36.2661 291.398C35.9377 291.252 35.6613 291.039 35.437 290.76C35.2202 290.474 35.1142 290.1 35.1192 289.638C35.1236 289.235 35.2266 288.872 35.4281 288.549C35.6369 288.227 35.9221 287.966 36.2836 287.769C36.6452 287.563 37.0609 287.439 37.5307 287.395L37.5437 286.196L38.3137 286.196L38.3006 287.406C38.7255 287.442 39.1277 287.545 39.5072 287.714C39.894 287.882 40.2216 288.102 40.49 288.373L40.1415 289.066C39.6117 288.553 38.9843 288.256 38.2592 288.175L38.227 291.134C38.7097 291.252 39.108 291.38 39.4218 291.519C39.7429 291.659 40.0084 291.864 40.2181 292.135C40.4279 292.399 40.5304 292.748 40.5257 293.18ZM36.0436 289.605C36.0395 289.979 36.1648 290.265 36.4193 290.463C36.6738 290.661 37.0423 290.826 37.5249 290.958L37.5552 288.175C37.0854 288.219 36.7171 288.37 36.4503 288.626C36.1835 288.876 36.048 289.202 36.0436 289.605ZM38.1894 294.588C38.6374 294.529 38.9836 294.383 39.2282 294.148C39.4801 293.906 39.6082 293.591 39.6125 293.202C39.616 292.88 39.4977 292.63 39.2576 292.454C39.0176 292.271 38.6709 292.117 38.2176 291.992L38.1894 294.588ZM46.9746 294.544L46.9663 295.303L41.9283 295.303L41.9357 294.621L44.7078 291.585C45.0789 291.175 45.3506 290.804 45.5229 290.474C45.6951 290.144 45.783 289.814 45.7866 289.484C45.7913 289.052 45.6703 288.722 45.4234 288.494C45.1766 288.26 44.8222 288.142 44.3602 288.142C43.6122 288.142 42.8683 288.443 42.1284 289.044L41.795 288.351C42.1062 288.058 42.4974 287.824 42.9686 287.648C43.4399 287.472 43.9138 287.384 44.3905 287.384C45.1092 287.384 45.6755 287.571 46.0894 287.944C46.5034 288.311 46.707 288.81 46.7001 289.44C46.6952 289.888 46.5879 290.32 46.378 290.738C46.1755 291.149 45.8368 291.611 45.3619 292.124L43.1026 294.544L46.9746 294.544ZM50.91 295.391C50.0154 295.391 49.337 295.054 48.8751 294.379C48.4205 293.697 48.2003 292.7 48.2146 291.387C48.2289 290.075 48.4707 289.081 48.9401 288.406C49.4168 287.725 50.1025 287.384 50.9972 287.384C51.8919 287.384 52.5665 287.725 53.0211 288.406C53.4831 289.081 53.7069 290.071 53.6927 291.376C53.6785 292.689 53.4329 293.686 52.9562 294.368C52.4868 295.05 51.8047 295.391 50.91 295.391ZM50.9183 294.632C51.5416 294.632 52.0028 294.368 52.3019 293.84C52.6083 293.312 52.7676 292.491 52.7797 291.376C52.7918 290.269 52.654 289.455 52.3663 288.934C52.0786 288.414 51.6195 288.153 50.9888 288.153C50.3655 288.153 49.9006 288.414 49.5943 288.934C49.2953 289.455 49.1398 290.269 49.1277 291.376C49.1157 292.484 49.2534 293.305 49.5409 293.84C49.8358 294.368 50.295 294.632 50.9183 294.632ZM57.5057 295.391C56.6111 295.391 55.9328 295.054 55.4708 294.379C55.0162 293.697 54.796 292.7 54.8103 291.387C54.8246 290.075 55.0664 289.081 55.5358 288.406C56.0125 287.725 56.6982 287.384 57.5929 287.384C58.4876 287.384 59.1622 287.725 59.6168 288.406C60.0788 289.081 60.3026 290.071 60.2884 291.376C60.2742 292.689 60.0286 293.686 59.5519 294.368C59.0825 295.05 58.4004 295.391 57.5057 295.391ZM57.514 294.632C58.1373 294.632 58.5985 294.368 58.8976 293.84C59.204 293.312 59.3633 292.491 59.3754 291.376C59.3875 290.269 59.2497 289.455 58.962 288.934C58.6744 288.414 58.2152 288.153 57.5845 288.153C56.9612 288.153 56.4964 288.414 56.19 288.934C55.891 289.455 55.7355 290.269 55.7234 291.376C55.7114 292.484 55.8491 293.305 56.1366 293.84C56.4315 294.368 56.8907 294.632 57.514 294.632Z" fill="#999999"/>
<path d="M40.5257 236.746C40.5193 237.332 40.305 237.824 39.8827 238.22C39.4604 238.616 38.9041 238.854 38.2139 238.934L38.2007 240.144L37.4307 240.144L37.4438 238.945C36.9381 238.916 36.4698 238.817 36.039 238.649C35.6155 238.48 35.244 238.245 34.9247 237.945L35.2732 237.252C35.6219 237.552 35.9715 237.776 36.3219 237.923C36.6796 238.069 37.0674 238.154 37.4851 238.176L37.5155 235.382C37.011 235.25 36.5945 235.11 36.2661 234.964C35.9377 234.817 35.6613 234.604 35.437 234.326C35.2202 234.04 35.1142 233.666 35.1192 233.204C35.1236 232.801 35.2266 232.438 35.4281 232.115C35.6369 231.792 35.9221 231.532 36.2836 231.334C36.6452 231.129 37.0609 231.004 37.5307 230.96L37.5437 229.761L38.3137 229.761L38.3006 230.971C38.7255 231.008 39.1277 231.11 39.5072 231.279C39.894 231.448 40.2216 231.668 40.49 231.939L40.1415 232.632C39.6117 232.119 38.9843 231.822 38.2592 231.741L38.227 234.7C38.7097 234.817 39.108 234.945 39.4218 235.085C39.7429 235.224 40.0084 235.429 40.2181 235.701C40.4279 235.965 40.5304 236.313 40.5257 236.746ZM36.0436 233.171C36.0395 233.545 36.1648 233.831 36.4193 234.029C36.6738 234.227 37.0423 234.392 37.5249 234.524L37.5552 231.741C37.0854 231.785 36.7171 231.935 36.4503 232.192C36.1835 232.441 36.048 232.768 36.0436 233.171ZM38.1894 238.154C38.6374 238.095 38.9836 237.948 39.2282 237.714C39.4801 237.472 39.6082 237.156 39.6125 236.768C39.616 236.445 39.4977 236.196 39.2576 236.02C39.0176 235.836 38.6709 235.682 38.2176 235.558L38.1894 238.154ZM47.2709 237.164L46.0829 237.164L46.0643 238.868L45.1623 238.868L45.1809 237.164L41.5729 237.164L41.5803 236.482L45.4125 231.037L46.1495 231.037L46.091 236.416L47.279 236.416L47.2709 237.164ZM45.189 236.416L45.2309 232.566L42.516 236.416L45.189 236.416ZM50.91 238.956C50.0154 238.956 49.337 238.619 48.8751 237.945C48.4205 237.263 48.2003 236.265 48.2146 234.953C48.2289 233.64 48.4707 232.647 48.9401 231.972C49.4168 231.29 50.1025 230.949 50.9972 230.949C51.8919 230.949 52.5665 231.29 53.0211 231.972C53.4831 232.647 53.7069 233.636 53.6927 234.942C53.6785 236.254 53.4329 237.252 52.9562 237.934C52.4868 238.616 51.8047 238.956 50.91 238.956ZM50.9183 238.198C51.5416 238.198 52.0028 237.934 52.3019 237.406C52.6083 236.878 52.7676 236.056 52.7797 234.942C52.7918 233.834 52.654 233.021 52.3663 232.5C52.0786 231.979 51.6195 231.719 50.9888 231.719C50.3655 231.719 49.9006 231.979 49.5943 232.5C49.2953 233.021 49.1398 233.834 49.1277 234.942C49.1157 236.049 49.2534 236.87 49.5409 237.406C49.8358 237.934 50.295 238.198 50.9183 238.198ZM57.5057 238.956C56.6111 238.956 55.9328 238.619 55.4708 237.945C55.0162 237.263 54.796 236.265 54.8103 234.953C54.8246 233.64 55.0664 232.647 55.5358 231.972C56.0125 231.29 56.6982 230.949 57.5929 230.949C58.4876 230.949 59.1622 231.29 59.6168 231.972C60.0788 232.647 60.3026 233.636 60.2884 234.942C60.2742 236.254 60.0286 237.252 59.5519 237.934C59.0825 238.616 58.4004 238.956 57.5057 238.956ZM57.514 238.198C58.1373 238.198 58.5985 237.934 58.8976 237.406C59.204 236.878 59.3633 236.056 59.3754 234.942C59.3875 233.834 59.2497 233.021 58.962 232.5C58.6744 231.979 58.2152 231.719 57.5845 231.719C56.9612 231.719 56.4964 231.979 56.19 232.5C55.891 233.021 55.7355 233.834 55.7234 234.942C55.7114 236.049 55.8491 236.87 56.1366 237.406C56.4315 237.934 56.8907 238.198 57.514 238.198Z" fill="#999999"/>
<path d="M40.5257 180.311C40.5193 180.898 40.305 181.389 39.8827 181.785C39.4604 182.181 38.9041 182.419 38.2139 182.5L38.2007 183.71L37.4307 183.71L37.4438 182.511C36.9381 182.482 36.4698 182.383 36.039 182.214C35.6155 182.045 35.244 181.811 34.9247 181.51L35.2732 180.817C35.6219 181.118 35.9715 181.341 36.3219 181.488C36.6796 181.635 37.0674 181.719 37.4851 181.741L37.5155 178.947C37.011 178.815 36.5945 178.676 36.2661 178.529C35.9377 178.382 35.6613 178.17 35.437 177.891C35.2202 177.605 35.1142 177.231 35.1192 176.769C35.1236 176.366 35.2266 176.003 35.4281 175.68C35.6369 175.358 35.9221 175.097 36.2836 174.899C36.6452 174.694 37.0609 174.569 37.5307 174.525L37.5437 173.326L38.3137 173.326L38.3006 174.536C38.7255 174.573 39.1277 174.676 39.5072 174.844C39.894 175.013 40.2216 175.233 40.49 175.504L40.1415 176.197C39.6117 175.684 38.9843 175.387 38.2592 175.306L38.227 178.265C38.7097 178.382 39.108 178.511 39.4218 178.65C39.7429 178.789 40.0084 178.995 40.2181 179.266C40.4279 179.53 40.5304 179.878 40.5257 180.311ZM36.0436 176.736C36.0395 177.11 36.1648 177.396 36.4193 177.594C36.6738 177.792 37.0423 177.957 37.5249 178.089L37.5552 175.306C37.0854 175.35 36.7171 175.501 36.4503 175.757C36.1835 176.007 36.048 176.333 36.0436 176.736ZM38.1894 181.719C38.6374 181.66 38.9836 181.514 39.2282 181.279C39.4801 181.037 39.6082 180.722 39.6125 180.333C39.616 180.01 39.4977 179.761 39.2576 179.585C39.0176 179.402 38.6709 179.248 38.2176 179.123L38.1894 181.719ZM44.6988 177.517C45.1755 177.517 45.596 177.624 45.9603 177.836C46.3321 178.042 46.6186 178.335 46.8198 178.716C47.021 179.09 47.119 179.519 47.1138 180.003C47.1085 180.487 46.9938 180.92 46.7696 181.301C46.5528 181.682 46.2525 181.983 45.8688 182.203C45.4852 182.416 45.0513 182.522 44.5673 182.522C43.6213 182.522 42.8953 182.192 42.3891 181.532C41.883 180.872 41.6365 179.933 41.6498 178.716C41.6593 177.836 41.7849 177.081 42.0264 176.45C42.2753 175.82 42.6252 175.339 43.0761 175.009C43.5344 174.679 44.0788 174.514 44.7095 174.514C45.1642 174.514 45.6032 174.599 46.0267 174.767C46.4576 174.936 46.8326 175.174 47.152 175.482L46.8034 176.175C46.4401 175.867 46.0906 175.64 45.7548 175.493C45.4191 175.347 45.0752 175.273 44.7232 175.273C44.0486 175.273 43.521 175.574 43.1404 176.175C42.7599 176.777 42.5637 177.62 42.5519 178.705L42.5501 178.87C42.7233 178.452 43.0019 178.122 43.3859 177.88C43.7698 177.638 44.2075 177.517 44.6988 177.517ZM44.5316 181.763C45.0303 181.763 45.4353 181.605 45.7468 181.29C46.0583 180.967 46.2169 180.542 46.2226 180.014C46.2283 179.493 46.0752 179.075 45.7633 178.76C45.4588 178.437 45.0572 178.276 44.5586 178.276C44.0452 178.276 43.6255 178.437 43.2993 178.76C42.9731 179.083 42.8072 179.501 42.8016 180.014C42.796 180.535 42.9527 180.956 43.2719 181.279C43.591 181.602 44.0109 181.763 44.5316 181.763ZM50.91 182.522C50.0154 182.522 49.337 182.185 48.8751 181.51C48.4205 180.828 48.2003 179.831 48.2146 178.518C48.2289 177.206 48.4707 176.212 48.9401 175.537C49.4168 174.855 50.1025 174.514 50.9972 174.514C51.8919 174.514 52.5665 174.855 53.0211 175.537C53.4831 176.212 53.7069 177.202 53.6927 178.507C53.6785 179.82 53.4329 180.817 52.9562 181.499C52.4868 182.181 51.8047 182.522 50.91 182.522ZM50.9183 181.763C51.5416 181.763 52.0028 181.499 52.3019 180.971C52.6083 180.443 52.7676 179.622 52.7797 178.507C52.7918 177.4 52.654 176.586 52.3663 176.065C52.0786 175.545 51.6195 175.284 50.9888 175.284C50.3655 175.284 49.9006 175.545 49.5943 176.065C49.2953 176.586 49.1398 177.4 49.1277 178.507C49.1157 179.614 49.2534 180.436 49.5409 180.971C49.8358 181.499 50.295 181.763 50.9183 181.763ZM57.5057 182.522C56.6111 182.522 55.9328 182.185 55.4708 181.51C55.0162 180.828 54.796 179.831 54.8103 178.518C54.8246 177.206 55.0664 176.212 55.5358 175.537C56.0125 174.855 56.6982 174.514 57.5929 174.514C58.4876 174.514 59.1622 174.855 59.6168 175.537C60.0788 176.212 60.3026 177.202 60.2884 178.507C60.2742 179.82 60.0286 180.817 59.5519 181.499C59.0825 182.181 58.4004 182.522 57.5057 182.522ZM57.514 181.763C58.1373 181.763 58.5985 181.499 58.8976 180.971C59.204 180.443 59.3633 179.622 59.3754 178.507C59.3875 177.4 59.2497 176.586 58.962 176.065C58.6744 175.545 58.2152 175.284 57.5845 175.284C56.9612 175.284 56.4964 175.545 56.19 176.065C55.891 176.586 55.7355 177.4 55.7234 178.507C55.7114 179.614 55.8491 180.436 56.1366 180.971C56.4315 181.499 56.8907 181.763 57.514 181.763Z" fill="#999999"/>
<path d="M40.5257 123.876C40.5193 124.463 40.305 124.954 39.8827 125.35C39.4604 125.746 38.9041 125.985 38.2139 126.065L38.2007 127.275L37.4307 127.275L37.4438 126.076C36.9381 126.047 36.4698 125.948 36.039 125.779C35.6155 125.611 35.244 125.376 34.9247 125.075L35.2732 124.382C35.6219 124.683 35.9715 124.907 36.3219 125.053C36.6796 125.2 37.0674 125.284 37.4851 125.306L37.5155 122.513C37.011 122.381 36.5945 122.241 36.2661 122.095C35.9377 121.948 35.6613 121.735 35.437 121.457C35.2202 121.171 35.1142 120.797 35.1192 120.335C35.1236 119.931 35.2266 119.568 35.4281 119.246C35.6369 118.923 35.9221 118.663 36.2836 118.465C36.6452 118.259 37.0609 118.135 37.5307 118.091L37.5437 116.892L38.3137 116.892L38.3006 118.102C38.7255 118.138 39.1277 118.241 39.5072 118.41C39.894 118.578 40.2216 118.798 40.49 119.07L40.1415 119.763C39.6117 119.249 38.9843 118.952 38.2592 118.872L38.227 121.831C38.7097 121.948 39.108 122.076 39.4218 122.216C39.7429 122.355 40.0084 122.56 40.2181 122.832C40.4279 123.096 40.5304 123.444 40.5257 123.876ZM36.0436 120.302C36.0395 120.676 36.1648 120.962 36.4193 121.16C36.6738 121.358 37.0423 121.523 37.5249 121.655L37.5552 118.872C37.0854 118.916 36.7171 119.066 36.4503 119.323C36.1835 119.572 36.048 119.898 36.0436 120.302ZM38.1894 125.284C38.6374 125.226 38.9836 125.079 39.2282 124.844C39.4801 124.602 39.6082 124.287 39.6125 123.898C39.616 123.576 39.4977 123.327 39.2576 123.151C39.0176 122.967 38.6709 122.813 38.2176 122.689L38.1894 125.284ZM45.5471 121.974C46.0589 122.113 46.4523 122.355 46.7272 122.7C47.0095 123.037 47.1481 123.444 47.1429 123.92C47.1357 124.588 46.8769 125.116 46.3667 125.504C45.8565 125.886 45.1725 126.076 44.3145 126.076C43.4565 126.076 42.7765 125.886 42.2747 125.504C41.7729 125.116 41.5257 124.588 41.5329 123.92C41.5381 123.444 41.6856 123.033 41.9753 122.689C42.2724 122.344 42.6747 122.106 43.1821 121.974C42.7143 121.834 42.3574 121.607 42.1115 121.292C41.8657 120.969 41.7452 120.591 41.7499 120.159C41.7544 119.741 41.8684 119.378 42.0917 119.07C42.3152 118.754 42.6258 118.512 43.0236 118.344C43.4289 118.168 43.8882 118.08 44.4015 118.08C44.9148 118.08 45.3685 118.168 45.7626 118.344C46.1641 118.512 46.4732 118.754 46.6897 119.07C46.9064 119.378 47.0124 119.741 47.0079 120.159C47.0032 120.591 46.8707 120.969 46.6105 121.292C46.3578 121.607 46.0033 121.834 45.5471 121.974ZM42.6511 120.225C42.6466 120.643 42.7969 120.984 43.102 121.248C43.4146 121.504 43.8345 121.662 44.3619 121.721C44.8905 121.662 45.3102 121.504 45.621 121.248C45.9392 120.984 46.1006 120.643 46.1051 120.225C46.1099 119.792 45.9596 119.451 45.6543 119.202C45.3563 118.952 44.936 118.828 44.3934 118.828C43.8507 118.828 43.424 118.952 43.1133 119.202C42.8099 119.451 42.6559 119.792 42.6511 120.225ZM44.3226 125.328C44.9386 125.328 45.413 125.204 45.7457 124.954C46.0784 124.705 46.2473 124.342 46.2525 123.865C46.2572 123.433 46.085 123.088 45.7358 122.832C45.394 122.568 44.9337 122.406 44.355 122.348C43.7751 122.406 43.3077 122.568 42.9528 122.832C42.6053 123.088 42.4292 123.433 42.4245 123.865C42.4193 124.342 42.5804 124.705 42.9077 124.954C43.235 125.204 43.7066 125.328 44.3226 125.328ZM50.91 126.087C50.0154 126.087 49.337 125.75 48.8751 125.075C48.4205 124.393 48.2003 123.396 48.2146 122.084C48.2289 120.771 48.4707 119.777 48.9401 119.103C49.4168 118.421 50.1025 118.08 50.9972 118.08C51.8919 118.08 52.5665 118.421 53.0211 119.103C53.4831 119.777 53.7069 120.767 53.6927 122.073C53.6785 123.385 53.4329 124.382 52.9562 125.064C52.4868 125.746 51.8047 126.087 50.91 126.087ZM50.9183 125.328C51.5416 125.328 52.0028 125.064 52.3019 124.536C52.6083 124.008 52.7676 123.187 52.7797 122.073C52.7918 120.965 52.654 120.151 52.3663 119.631C52.0786 119.11 51.6195 118.85 50.9888 118.85C50.3655 118.85 49.9006 119.11 49.5943 119.631C49.2953 120.151 49.1398 120.965 49.1277 122.073C49.1157 123.18 49.2534 124.001 49.5409 124.536C49.8358 125.064 50.295 125.328 50.9183 125.328ZM57.5057 126.087C56.6111 126.087 55.9328 125.75 55.4708 125.075C55.0162 124.393 54.796 123.396 54.8103 122.084C54.8246 120.771 55.0664 119.777 55.5358 119.103C56.0125 118.421 56.6982 118.08 57.5929 118.08C58.4876 118.08 59.1622 118.421 59.6168 119.103C60.0788 119.777 60.3026 120.767 60.2884 122.073C60.2742 123.385 60.0286 124.382 59.5519 125.064C59.0825 125.746 58.4004 126.087 57.5057 126.087ZM57.514 125.328C58.1373 125.328 58.5985 125.064 58.8976 124.536C59.204 124.008 59.3633 123.187 59.3754 122.073C59.3875 120.965 59.2497 120.151 58.962 119.631C58.6744 119.11 58.2152 118.85 57.5845 118.85C56.9612 118.85 56.4964 119.11 56.19 119.631C55.891 120.151 55.7355 120.965 55.7234 122.073C55.7114 123.18 55.8491 124.001 56.1366 124.536C56.4315 125.064 56.8907 125.328 57.514 125.328Z" fill="#999999"/>
<path d="M40.5257 79.8765C40.5193 80.4631 40.305 80.9544 39.8827 81.3504C39.4604 81.7464 38.9041 81.9847 38.2139 82.0653L38.2007 83.2753L37.4307 83.2753L37.4438 82.0763C36.9381 82.047 36.4698 81.948 36.039 81.7794C35.6155 81.6107 35.244 81.3761 34.9247 81.0754L35.2732 80.3824C35.6219 80.6831 35.9715 80.9067 36.3219 81.0534C36.6796 81.2001 37.0674 81.2844 37.4851 81.3064L37.5155 78.5126C37.011 78.3806 36.5945 78.2412 36.2661 78.0946C35.9377 77.9479 35.6613 77.7353 35.437 77.4566C35.2202 77.1706 35.1142 76.7967 35.1192 76.3347C35.1236 75.9314 35.2266 75.5684 35.4281 75.2457C35.6369 74.9231 35.9221 74.6628 36.2836 74.4648C36.6452 74.2595 37.0609 74.1348 37.5307 74.0908L37.5437 72.8919L38.3137 72.8919L38.3006 74.1018C38.7255 74.1385 39.1277 74.2411 39.5072 74.4098C39.894 74.5785 40.2216 74.7984 40.49 75.0698L40.1415 75.7627C39.6117 75.2494 38.9843 74.9524 38.2592 74.8718L38.227 77.8306C38.7097 77.9479 39.108 78.0762 39.4218 78.2156C39.7429 78.3549 40.0084 78.5602 40.2181 78.8315C40.4279 79.0955 40.5304 79.4438 40.5257 79.8765ZM36.0436 76.3017C36.0395 76.6757 36.1648 76.9616 36.4193 77.1596C36.6738 77.3576 37.0423 77.5226 37.5249 77.6546L37.5552 74.8718C37.0854 74.9158 36.7171 75.0661 36.4503 75.3227C36.1835 75.5721 36.048 75.8984 36.0436 76.3017ZM38.1894 81.2844C38.6374 81.2257 38.9836 81.0791 39.2282 80.8444C39.4801 80.6024 39.6082 80.2871 39.6125 79.8985C39.616 79.5758 39.4977 79.3265 39.2576 79.1505C39.0176 78.9672 38.6709 78.8132 38.2176 78.6885L38.1894 81.2844ZM44.1595 74.0798C45.1055 74.0798 45.8316 74.4098 46.3377 75.0698C46.8439 75.7297 47.0903 76.6683 47.0771 77.8856C47.0626 79.2128 46.7837 80.2468 46.2403 80.9874C45.7043 81.7207 44.9597 82.0873 44.0063 82.0873C43.559 82.0873 43.1199 82.003 42.6891 81.8344C42.2656 81.6657 41.8905 81.4274 41.5639 81.1194L41.9234 80.4264C42.294 80.7418 42.6471 80.9727 42.9829 81.1194C43.3187 81.2587 43.6589 81.3284 44.0036 81.3284C44.6783 81.3284 45.2022 81.0277 45.5754 80.4264C45.956 79.8251 46.1521 78.9819 46.164 77.8966L46.1655 77.7536C45.9924 78.1642 45.7138 78.4906 45.3299 78.7325C44.946 78.9672 44.5084 79.0845 44.017 79.0845C43.5404 79.0845 43.1198 78.9819 42.7554 78.7765C42.391 78.5639 42.1082 78.2706 41.907 77.8966C41.7058 77.5153 41.6078 77.0826 41.6131 76.5987C41.6183 76.1147 41.7294 75.6821 41.9462 75.3007C42.1704 74.9194 42.4743 74.6225 42.8579 74.4098C43.2416 74.1898 43.6755 74.0798 44.1595 74.0798ZM44.1683 78.3256C44.6816 78.3256 45.1014 78.1642 45.4276 77.8416C45.7537 77.5189 45.9196 77.101 45.9252 76.5877C45.9309 76.067 45.7741 75.6454 45.455 75.3227C45.1358 75.0001 44.7159 74.8388 44.1952 74.8388C43.6966 74.8388 43.2915 75.0001 42.98 75.3227C42.6685 75.6381 42.5099 76.0597 42.5042 76.5877C42.4985 77.1083 42.6479 77.5299 42.9524 77.8526C43.257 78.1679 43.6623 78.3256 44.1683 78.3256ZM50.91 82.0873C50.0154 82.0873 49.337 81.75 48.8751 81.0754C48.4205 80.3934 48.2003 79.3962 48.2146 78.0836C48.2289 76.771 48.4707 75.7774 48.9401 75.1028C49.4168 74.4208 50.1025 74.0798 50.9972 74.0798C51.8919 74.0798 52.5665 74.4208 53.0211 75.1028C53.4831 75.7774 53.7069 76.7673 53.6927 78.0726C53.6785 79.3852 53.4329 80.3824 52.9562 81.0644C52.4868 81.7464 51.8047 82.0873 50.91 82.0873ZM50.9183 81.3284C51.5416 81.3284 52.0028 81.0644 52.3019 80.5364C52.6083 80.0085 52.7676 79.1872 52.7797 78.0726C52.7918 76.9653 52.654 76.1514 52.3663 75.6307C52.0786 75.1101 51.6195 74.8498 50.9888 74.8498C50.3655 74.8498 49.9006 75.1101 49.5943 75.6307C49.2953 76.1514 49.1398 76.9653 49.1277 78.0726C49.1157 79.1798 49.2534 80.0011 49.5409 80.5364C49.8358 81.0644 50.295 81.3284 50.9183 81.3284ZM57.5057 82.0873C56.6111 82.0873 55.9328 81.75 55.4708 81.0754C55.0162 80.3934 54.796 79.3962 54.8103 78.0836C54.8246 76.771 55.0664 75.7774 55.5358 75.1028C56.0125 74.4208 56.6982 74.0798 57.5929 74.0798C58.4876 74.0798 59.1622 74.4208 59.6168 75.1028C60.0788 75.7774 60.3026 76.7673 60.2884 78.0726C60.2742 79.3852 60.0286 80.3824 59.5519 81.0644C59.0825 81.7464 58.4004 82.0873 57.5057 82.0873ZM57.514 81.3284C58.1373 81.3284 58.5985 81.0644 58.8976 80.5364C59.204 80.0085 59.3633 79.1872 59.3754 78.0726C59.3875 76.9653 59.2497 76.1514 58.962 75.6307C58.6744 75.1101 58.2152 74.8498 57.5845 74.8498C56.9612 74.8498 56.4964 75.1101 56.19 75.6307C55.891 76.1514 55.7355 76.9653 55.7234 78.0726C55.7114 79.1798 55.8491 80.0011 56.1366 80.5364C56.4315 81.0644 56.8907 81.3284 57.514 81.3284Z" fill="#999999"/>
<path d="M33.93 35.8765C33.9236 36.4631 33.7093 36.9544 33.287 37.3504C32.8646 37.7464 32.3084 37.9847 31.6182 38.0653L31.605 39.2753L30.835 39.2753L30.8481 38.0763C30.3424 38.047 29.8741 37.948 29.4433 37.7794C29.0198 37.6107 28.6483 37.3761 28.329 37.0754L28.6775 36.3824C29.0262 36.6831 29.3758 36.9067 29.7262 37.0534C30.0839 37.2001 30.4717 37.2844 30.8894 37.3064L30.9198 34.5126C30.4153 34.3806 29.9988 34.2412 29.6704 34.0946C29.342 33.9479 29.0656 33.7353 28.8413 33.4566C28.6244 33.1706 28.5185 32.7967 28.5235 32.3347C28.5279 31.9314 28.6309 31.5684 28.8324 31.2457C29.0412 30.9231 29.3264 30.6628 29.6879 30.4648C30.0495 30.2595 30.4652 30.1348 30.935 30.0908L30.948 28.8919L31.718 28.8919L31.7048 30.1018C32.1298 30.1385 32.532 30.2411 32.9115 30.4098C33.2983 30.5785 33.6259 30.7984 33.8943 31.0698L33.5458 31.7627C33.016 31.2494 32.3886 30.9524 31.6635 30.8718L31.6313 33.8306C32.114 33.9479 32.5123 34.0762 32.8261 34.2156C33.1472 34.3549 33.4127 34.5602 33.6224 34.8315C33.8322 35.0955 33.9347 35.4438 33.93 35.8765ZM29.4479 32.3017C29.4438 32.6757 29.5691 32.9616 29.8236 33.1596C30.0781 33.3576 30.4466 33.5226 30.9292 33.6546L30.9595 30.8718C30.4897 30.9158 30.1214 31.0661 29.8546 31.3227C29.5878 31.5721 29.4523 31.8984 29.4479 32.3017ZM31.5937 37.2844C32.0416 37.2257 32.3879 37.0791 32.6325 36.8444C32.8844 36.6024 33.0125 36.2871 33.0168 35.8985C33.0203 35.5758 32.902 35.3265 32.6619 35.1505C32.4219 34.9672 32.0752 34.8132 31.6219 34.6885L31.5937 37.2844ZM40.2029 37.2404L40.1946 37.9993L35.8276 37.9993L35.8359 37.2404L37.5629 37.2404L37.6276 31.2897L36.0105 32.3127L36.0199 31.4437L38.0358 30.1678L38.5528 30.1678L38.4759 37.2404L40.2029 37.2404ZM44.3143 38.0873C43.4197 38.0873 42.7413 37.75 42.2794 37.0754C41.8248 36.3934 41.6046 35.3962 41.6189 34.0836C41.6332 32.771 41.875 31.7774 42.3444 31.1028C42.8211 30.4208 43.5068 30.0798 44.4015 30.0798C45.2962 30.0798 45.9708 30.4208 46.4254 31.1028C46.8874 31.7774 47.1112 32.7673 47.097 34.0726C47.0828 35.3852 46.8372 36.3824 46.3605 37.0644C45.8911 37.7464 45.209 38.0873 44.3143 38.0873ZM44.3226 37.3284C44.9459 37.3284 45.4071 37.0644 45.7062 36.5364C46.0126 36.0085 46.1719 35.1872 46.184 34.0726C46.1961 32.9653 46.0583 32.1514 45.7706 31.6307C45.4829 31.1101 45.0238 30.8498 44.3931 30.8498C43.7698 30.8498 43.3049 31.1101 42.9986 31.6307C42.6996 32.1514 42.5441 32.9653 42.532 34.0726C42.52 35.1798 42.6577 36.0011 42.9452 36.5364C43.2401 37.0644 43.6993 37.3284 44.3226 37.3284ZM50.91 38.0873C50.0154 38.0873 49.337 37.75 48.8751 37.0754C48.4205 36.3934 48.2003 35.3962 48.2146 34.0836C48.2289 32.771 48.4707 31.7774 48.9401 31.1028C49.4168 30.4208 50.1025 30.0798 50.9972 30.0798C51.8919 30.0798 52.5665 30.4208 53.0211 31.1028C53.4831 31.7774 53.7069 32.7673 53.6927 34.0726C53.6785 35.3852 53.4329 36.3824 52.9562 37.0644C52.4868 37.7464 51.8047 38.0873 50.91 38.0873ZM50.9183 37.3284C51.5416 37.3284 52.0028 37.0644 52.3019 36.5364C52.6083 36.0085 52.7676 35.1872 52.7797 34.0726C52.7918 32.9653 52.654 32.1514 52.3663 31.6307C52.0786 31.1101 51.6195 30.8498 50.9888 30.8498C50.3655 30.8498 49.9006 31.1101 49.5943 31.6307C49.2953 32.1514 49.1398 32.9653 49.1277 34.0726C49.1157 35.1798 49.2534 36.0011 49.5409 36.5364C49.8358 37.0644 50.295 37.3284 50.9183 37.3284ZM57.5057 38.0873C56.6111 38.0873 55.9328 37.75 55.4708 37.0754C55.0162 36.3934 54.796 35.3962 54.8103 34.0836C54.8246 32.771 55.0664 31.7774 55.5358 31.1028C56.0125 30.4208 56.6982 30.0798 57.5929 30.0798C58.4876 30.0798 59.1622 30.4208 59.6168 31.1028C60.0788 31.7774 60.3026 32.7673 60.2884 34.0726C60.2742 35.3852 60.0286 36.3824 59.5519 37.0644C59.0825 37.7464 58.4004 38.0873 57.5057 38.0873ZM57.514 37.3284C58.1373 37.3284 58.5985 37.0644 58.8976 36.5364C59.204 36.0085 59.3633 35.1872 59.3754 34.0726C59.3875 32.9653 59.2497 32.1514 58.962 31.6307C58.6744 31.1101 58.2152 30.8498 57.5845 30.8498C56.9612 30.8498 56.4964 31.1101 56.19 31.6307C55.891 32.1514 55.7355 32.9653 55.7234 34.0726C55.7114 35.1798 55.8491 36.0011 56.1366 36.5364C56.4315 37.0644 56.8907 37.3284 57.514 37.3284Z" fill="#999999"/>
<defs>
<filter id="filter0_dd_15392_7367" x="183.761" y="170.622" width="29.0056" height="29.322" filterUnits="userSpaceOnUse" color-interpolation-filters="sRGB">
<feFlood flood-opacity="0" result="BackgroundImageFix"/>
<feColorMatrix in="SourceAlpha" type="matrix" values="0 0 0 0 0 0 0 0 0 0 0 0 0 0 0 0 0 0 127 0" result="hardAlpha"/>
<feOffset dy="2"/>
<feGaussianBlur stdDeviation="2"/>
<feColorMatrix type="matrix" values="0 0 0 0 0.196487 0 0 0 0 0.196487 0 0 0 0 0.279476 0 0 0 0.06 0"/>
<feBlend mode="multiply" in2="BackgroundImageFix" result="effect1_dropShadow_15392_7367"/>
<feColorMatrix in="SourceAlpha" type="matrix" values="0 0 0 0 0 0 0 0 0 0 0 0 0 0 0 0 0 0 127 0" result="hardAlpha"/>
<feOffset dy="2"/>
<feGaussianBlur stdDeviation="1"/>
<feColorMatrix type="matrix" values="0 0 0 0 0.196487 0 0 0 0 0.196487 0 0 0 0 0.279476 0 0 0 0.06 0"/>
<feBlend mode="multiply" in2="effect1_dropShadow_15392_7367" result="effect2_dropShadow_15392_7367"/>
<feBlend mode="normal" in="SourceGraphic" in2="effect2_dropShadow_15392_7367" result="shape"/>
</filter>
</defs>
</svg>
